<?xml version="1.0" standalone="no"?>
<!DOCTYPE svg PUBLIC "-//W3C//DTD SVG 20010904//EN"
 "http://www.w3.org/TR/2001/REC-SVG-20010904/DTD/svg10.dtd">
<svg version="1.0" xmlns="http://www.w3.org/2000/svg"
 width="184.000000pt" height="259.000000pt" viewBox="0 0 184.000000 259.000000"
 preserveAspectRatio="xMidYMid meet">

<g transform="translate(0.000000,259.000000) scale(0.100000,-0.100000)"
fill="#000000" stroke="none">
<path d="M380 2405 l0 -175 55 0 55 0 0 45 c0 42 2 45 28 45 40 0 98 18 112
35 19 23 30 97 20 141 -5 21 -21 49 -35 62 -23 20 -37 22 -131 22 l-104 0 0
-175z m165 45 c0 -31 -3 -35 -27 -38 -26 -3 -28 -1 -28 31 0 40 7 49 35 45 16
-2 20 -10 20 -38z"/>
<path d="M760 2405 l0 -175 65 0 65 0 0 61 0 60 33 -3 c32 -3 32 -4 35 -60 l3
-58 59 0 60 0 0 175 0 175 -60 0 -60 0 0 -60 0 -60 -35 0 -35 0 0 60 0 60 -65
0 -65 0 0 -175z"/>
<path d="M1180 2405 l0 -175 55 0 55 0 0 45 c0 42 2 45 28 45 40 0 98 18 112
35 19 23 30 97 20 141 -5 21 -21 49 -35 62 -23 20 -37 22 -131 22 l-104 0 0
-175z m165 45 c0 -31 -3 -35 -27 -38 -26 -3 -28 -1 -28 31 0 40 7 49 35 45 16
-2 20 -10 20 -38z"/>
<path d="M14 2028 c4 -24 42 -441 87 -928 44 -486 81 -885 82 -886 1 -1 168
-48 371 -104 l369 -103 361 98 c199 54 366 103 372 109 6 6 43 384 88 901 42
490 80 905 83 923 l5 32 -911 0 -912 0 5 -42z m1659 -125 c-1 -16 -32 -368
-68 -783 -36 -415 -69 -766 -73 -779 -6 -22 -33 -31 -302 -107 -162 -46 -301
-84 -307 -84 -10 0 -13 41 -13 173 l-1 172 -27 -48 c-15 -26 -31 -46 -37 -44
-5 2 -56 17 -112 33 -57 16 -103 33 -103 38 0 4 63 119 140 255 77 136 140
255 140 264 0 14 -11 17 -64 17 l-63 0 -12 100 c-17 153 -23 140 64 140 l75 0
0 105 0 105 -274 0 -274 0 -12 103 c-6 56 -14 110 -16 120 -5 16 13 17 285 17
l291 0 0 108 c0 60 3 112 7 115 3 4 176 7 383 7 l377 0 -4 -27z"/>
</g>
</svg>
